<?xml version="1.0" standalone="no"?><svg xmlns="http://www.w3.org/2000/svg" viewBox="0 0 1440 320"><path fill="#6eafe7" fill-opacity="1" d="M0,320L8,282.7C16,245,32,171,48,160C64,149,80,203,96,208C112,213,128,171,144,144C160,117,176,107,192,133.3C208,160,224,224,240,256C256,288,272,288,288,288C304,288,320,288,336,288C352,288,368,288,384,240C400,192,416,96,432,80C448,64,464,128,480,144C496,160,512,128,528,138.7C544,149,560,203,576,224C592,245,608,235,624,218.7C640,203,656,181,672,186.7C688,192,704,224,720,202.7C736,181,752,107,768,69.3C784,32,800,32,816,48C832,64,848,96,864,101.3C880,107,896,85,912,112C928,139,944,213,960,224C976,235,992,181,1008,133.3C1024,85,1040,43,1056,42.7C1072,43,1088,85,1104,122.7C1120,160,1136,192,1152,208C1168,224,1184,224,1200,234.7C1216,245,1232,267,1248,229.3C1264,192,1280,96,1296,90.7C1312,85,1328,171,1344,192C1360,213,1376,171,1392,160C1408,149,1424,171,1432,181.3L1440,192L1440,0L1432,0C1424,0,1408,0,1392,0C1376,0,1360,0,1344,0C1328,0,1312,0,1296,0C1280,0,1264,0,1248,0C1232,0,1216,0,1200,0C1184,0,1168,0,1152,0C1136,0,1120,0,1104,0C1088,0,1072,0,1056,0C1040,0,1024,0,1008,0C992,0,976,0,960,0C944,0,928,0,912,0C896,0,880,0,864,0C848,0,832,0,816,0C800,0,784,0,768,0C752,0,736,0,720,0C704,0,688,0,672,0C656,0,640,0,624,0C608,0,592,0,576,0C560,0,544,0,528,0C512,0,496,0,480,0C464,0,448,0,432,0C416,0,400,0,384,0C368,0,352,0,336,0C320,0,304,0,288,0C272,0,256,0,240,0C224,0,208,0,192,0C176,0,160,0,144,0C128,0,112,0,96,0C80,0,64,0,48,0C32,0,16,0,8,0L0,0Z"></path></svg>