<?xml version="1.0" standalone="no"?><svg xmlns="http://www.w3.org/2000/svg" viewBox="0 0 1440 320"><path fill="#6eafe7" fill-opacity="1" d="M0,160L40,160C80,160,160,160,240,181.3C320,203,400,245,480,245.3C560,245,640,203,720,202.7C800,203,880,245,960,234.7C1040,224,1120,160,1200,154.7C1280,149,1360,203,1400,229.3L1440,256L1440,320L1400,320C1360,320,1280,320,1200,320C1120,320,1040,320,960,320C880,320,800,320,720,320C640,320,560,320,480,320C400,320,320,320,240,320C160,320,80,320,40,320L0,320Z"></path></svg>